<mxfile host="app.diagrams.net" agent="Mozilla/5.0 (Windows NT 10.0; Win64; x64) AppleWebKit/537.36 (KHTML, like Gecko) Chrome/133.0.0.0 Safari/537.36 OPR/118.0.0.0" version="27.0.9">
  <diagram name="Page-1" id="8f-XBa42s575WhTfZuz_">
    <mxGraphModel dx="989" dy="619" grid="1" gridSize="10" guides="1" tooltips="1" connect="1" arrows="1" fold="1" page="1" pageScale="1" pageWidth="827" pageHeight="1169" math="0" shadow="0">
      <root>
        <mxCell id="0" />
        <mxCell id="1" parent="0" />
        <mxCell id="5xrcf0Wvj9pMxKyQcoh8-2" value="AlertGenerator" style="swimlane;fontStyle=1;align=center;verticalAlign=top;childLayout=stackLayout;horizontal=1;startSize=26;horizontalStack=0;resizeParent=1;resizeParentMax=0;resizeLast=0;collapsible=1;marginBottom=0;whiteSpace=wrap;html=1;" vertex="1" parent="1">
          <mxGeometry x="140" y="310" width="190" height="78" as="geometry" />
        </mxCell>
        <mxCell id="5xrcf0Wvj9pMxKyQcoh8-3" value="- strategies: List&amp;lt;AlertStrategy&amp;gt;&lt;div&gt;+ evaluateData(patient: Patient): void&lt;/div&gt;" style="text;strokeColor=none;fillColor=none;align=left;verticalAlign=top;spacingLeft=4;spacingRight=4;overflow=hidden;rotatable=0;points=[[0,0.5],[1,0.5]];portConstraint=eastwest;whiteSpace=wrap;html=1;" vertex="1" parent="5xrcf0Wvj9pMxKyQcoh8-2">
          <mxGeometry y="26" width="190" height="44" as="geometry" />
        </mxCell>
        <mxCell id="5xrcf0Wvj9pMxKyQcoh8-4" value="" style="line;strokeWidth=1;fillColor=none;align=left;verticalAlign=middle;spacingTop=-1;spacingLeft=3;spacingRight=3;rotatable=0;labelPosition=right;points=[];portConstraint=eastwest;strokeColor=inherit;" vertex="1" parent="5xrcf0Wvj9pMxKyQcoh8-2">
          <mxGeometry y="70" width="190" height="8" as="geometry" />
        </mxCell>
        <mxCell id="5xrcf0Wvj9pMxKyQcoh8-6" value="&amp;lt;&amp;lt;interface&amp;gt;&amp;gt; AlertStrategy" style="swimlane;fontStyle=1;align=center;verticalAlign=top;childLayout=stackLayout;horizontal=1;startSize=26;horizontalStack=0;resizeParent=1;resizeParentMax=0;resizeLast=0;collapsible=1;marginBottom=0;whiteSpace=wrap;html=1;" vertex="1" parent="1">
          <mxGeometry x="140" y="450" width="190" height="90" as="geometry" />
        </mxCell>
        <mxCell id="5xrcf0Wvj9pMxKyQcoh8-8" value="" style="line;strokeWidth=1;fillColor=none;align=left;verticalAlign=middle;spacingTop=-1;spacingLeft=3;spacingRight=3;rotatable=0;labelPosition=right;points=[];portConstraint=eastwest;strokeColor=inherit;" vertex="1" parent="5xrcf0Wvj9pMxKyQcoh8-6">
          <mxGeometry y="26" width="190" height="8" as="geometry" />
        </mxCell>
        <mxCell id="5xrcf0Wvj9pMxKyQcoh8-9" value="+ checkAlert(patient: Patient, startTime: long, endTime: long): List&amp;lt;Alert&amp;gt;" style="text;strokeColor=none;fillColor=none;align=left;verticalAlign=top;spacingLeft=4;spacingRight=4;overflow=hidden;rotatable=0;points=[[0,0.5],[1,0.5]];portConstraint=eastwest;whiteSpace=wrap;html=1;" vertex="1" parent="5xrcf0Wvj9pMxKyQcoh8-6">
          <mxGeometry y="34" width="190" height="56" as="geometry" />
        </mxCell>
        <mxCell id="5xrcf0Wvj9pMxKyQcoh8-13" value="BloodPressureStrategy" style="swimlane;fontStyle=1;align=center;verticalAlign=top;childLayout=stackLayout;horizontal=1;startSize=26;horizontalStack=0;resizeParent=1;resizeParentMax=0;resizeLast=0;collapsible=1;marginBottom=0;whiteSpace=wrap;html=1;" vertex="1" parent="1">
          <mxGeometry x="414" y="465" width="160" height="90" as="geometry" />
        </mxCell>
        <mxCell id="5xrcf0Wvj9pMxKyQcoh8-15" value="" style="line;strokeWidth=1;fillColor=none;align=left;verticalAlign=middle;spacingTop=-1;spacingLeft=3;spacingRight=3;rotatable=0;labelPosition=right;points=[];portConstraint=eastwest;strokeColor=inherit;" vertex="1" parent="5xrcf0Wvj9pMxKyQcoh8-13">
          <mxGeometry y="26" width="160" height="8" as="geometry" />
        </mxCell>
        <mxCell id="5xrcf0Wvj9pMxKyQcoh8-16" value="+ checkAlert(patient, startTime, endTime): List&amp;lt;Alert&amp;gt;" style="text;strokeColor=none;fillColor=none;align=left;verticalAlign=top;spacingLeft=4;spacingRight=4;overflow=hidden;rotatable=0;points=[[0,0.5],[1,0.5]];portConstraint=eastwest;whiteSpace=wrap;html=1;" vertex="1" parent="5xrcf0Wvj9pMxKyQcoh8-13">
          <mxGeometry y="34" width="160" height="56" as="geometry" />
        </mxCell>
        <mxCell id="5xrcf0Wvj9pMxKyQcoh8-19" value="" style="endArrow=block;dashed=1;endFill=0;endSize=12;html=1;rounded=0;exitX=0;exitY=0.5;exitDx=0;exitDy=0;" edge="1" parent="1">
          <mxGeometry width="160" relative="1" as="geometry">
            <mxPoint x="414" y="483" as="sourcePoint" />
            <mxPoint x="320" y="480" as="targetPoint" />
          </mxGeometry>
        </mxCell>
        <mxCell id="5xrcf0Wvj9pMxKyQcoh8-20" value="Alert" style="swimlane;fontStyle=1;align=center;verticalAlign=top;childLayout=stackLayout;horizontal=1;startSize=26;horizontalStack=0;resizeParent=1;resizeParentMax=0;resizeLast=0;collapsible=1;marginBottom=0;whiteSpace=wrap;html=1;" vertex="1" parent="1">
          <mxGeometry x="30" y="740" width="160" height="140" as="geometry" />
        </mxCell>
        <mxCell id="5xrcf0Wvj9pMxKyQcoh8-21" value="-patientId: int&amp;nbsp; &amp;nbsp;&lt;div&gt;-message: String&lt;/div&gt;&lt;div&gt;-timestamp: long&lt;/div&gt;" style="text;strokeColor=none;fillColor=none;align=left;verticalAlign=top;spacingLeft=4;spacingRight=4;overflow=hidden;rotatable=0;points=[[0,0.5],[1,0.5]];portConstraint=eastwest;whiteSpace=wrap;html=1;" vertex="1" parent="5xrcf0Wvj9pMxKyQcoh8-20">
          <mxGeometry y="26" width="160" height="54" as="geometry" />
        </mxCell>
        <mxCell id="5xrcf0Wvj9pMxKyQcoh8-22" value="" style="line;strokeWidth=1;fillColor=none;align=left;verticalAlign=middle;spacingTop=-1;spacingLeft=3;spacingRight=3;rotatable=0;labelPosition=right;points=[];portConstraint=eastwest;strokeColor=inherit;" vertex="1" parent="5xrcf0Wvj9pMxKyQcoh8-20">
          <mxGeometry y="80" width="160" height="8" as="geometry" />
        </mxCell>
        <mxCell id="5xrcf0Wvj9pMxKyQcoh8-23" value="+ emit(outputStrategy: OutputStrategy): void&amp;nbsp;&lt;div&gt;&lt;div&gt;+ getMessage(): String&lt;/div&gt;&lt;/div&gt;" style="text;strokeColor=none;fillColor=none;align=left;verticalAlign=top;spacingLeft=4;spacingRight=4;overflow=hidden;rotatable=0;points=[[0,0.5],[1,0.5]];portConstraint=eastwest;whiteSpace=wrap;html=1;" vertex="1" parent="5xrcf0Wvj9pMxKyQcoh8-20">
          <mxGeometry y="88" width="160" height="52" as="geometry" />
        </mxCell>
        <mxCell id="5xrcf0Wvj9pMxKyQcoh8-32" value="" style="edgeStyle=orthogonalEdgeStyle;rounded=0;orthogonalLoop=1;jettySize=auto;html=1;dashed=1;" edge="1" parent="1" source="5xrcf0Wvj9pMxKyQcoh8-24" target="5xrcf0Wvj9pMxKyQcoh8-9">
          <mxGeometry relative="1" as="geometry">
            <Array as="points">
              <mxPoint x="160" y="563" />
              <mxPoint x="220" y="563" />
            </Array>
          </mxGeometry>
        </mxCell>
        <mxCell id="5xrcf0Wvj9pMxKyQcoh8-24" value="ManualAlertStrategy&amp;nbsp;" style="swimlane;fontStyle=1;align=center;verticalAlign=top;childLayout=stackLayout;horizontal=1;startSize=26;horizontalStack=0;resizeParent=1;resizeParentMax=0;resizeLast=0;collapsible=1;marginBottom=0;whiteSpace=wrap;html=1;" vertex="1" parent="1">
          <mxGeometry x="80" y="585" width="160" height="110" as="geometry" />
        </mxCell>
        <mxCell id="5xrcf0Wvj9pMxKyQcoh8-25" value="+ field: type" style="text;strokeColor=none;fillColor=none;align=left;verticalAlign=top;spacingLeft=4;spacingRight=4;overflow=hidden;rotatable=0;points=[[0,0.5],[1,0.5]];portConstraint=eastwest;whiteSpace=wrap;html=1;" vertex="1" parent="5xrcf0Wvj9pMxKyQcoh8-24">
          <mxGeometry y="26" width="160" height="26" as="geometry" />
        </mxCell>
        <mxCell id="5xrcf0Wvj9pMxKyQcoh8-26" value="" style="line;strokeWidth=1;fillColor=none;align=left;verticalAlign=middle;spacingTop=-1;spacingLeft=3;spacingRight=3;rotatable=0;labelPosition=right;points=[];portConstraint=eastwest;strokeColor=inherit;" vertex="1" parent="5xrcf0Wvj9pMxKyQcoh8-24">
          <mxGeometry y="52" width="160" height="8" as="geometry" />
        </mxCell>
        <mxCell id="5xrcf0Wvj9pMxKyQcoh8-27" value="+ checkAlert(patient, startTime, endTime): List&amp;lt;Alert&amp;gt;" style="text;strokeColor=none;fillColor=none;align=left;verticalAlign=top;spacingLeft=4;spacingRight=4;overflow=hidden;rotatable=0;points=[[0,0.5],[1,0.5]];portConstraint=eastwest;whiteSpace=wrap;html=1;" vertex="1" parent="5xrcf0Wvj9pMxKyQcoh8-24">
          <mxGeometry y="60" width="160" height="50" as="geometry" />
        </mxCell>
        <mxCell id="5xrcf0Wvj9pMxKyQcoh8-33" style="edgeStyle=orthogonalEdgeStyle;rounded=0;orthogonalLoop=1;jettySize=auto;html=1;dashed=1;" edge="1" parent="1" source="5xrcf0Wvj9pMxKyQcoh8-28">
          <mxGeometry relative="1" as="geometry">
            <mxPoint x="280" y="550" as="targetPoint" />
            <Array as="points">
              <mxPoint x="270" y="623" />
              <mxPoint x="270" y="550" />
            </Array>
          </mxGeometry>
        </mxCell>
        <mxCell id="5xrcf0Wvj9pMxKyQcoh8-28" value="OxygenSaturationStrategy" style="swimlane;fontStyle=1;align=center;verticalAlign=top;childLayout=stackLayout;horizontal=1;startSize=26;horizontalStack=0;resizeParent=1;resizeParentMax=0;resizeLast=0;collapsible=1;marginBottom=0;whiteSpace=wrap;html=1;" vertex="1" parent="1">
          <mxGeometry x="290" y="580" width="200" height="110" as="geometry" />
        </mxCell>
        <mxCell id="5xrcf0Wvj9pMxKyQcoh8-29" value="+ field: type" style="text;strokeColor=none;fillColor=none;align=left;verticalAlign=top;spacingLeft=4;spacingRight=4;overflow=hidden;rotatable=0;points=[[0,0.5],[1,0.5]];portConstraint=eastwest;whiteSpace=wrap;html=1;" vertex="1" parent="5xrcf0Wvj9pMxKyQcoh8-28">
          <mxGeometry y="26" width="200" height="26" as="geometry" />
        </mxCell>
        <mxCell id="5xrcf0Wvj9pMxKyQcoh8-30" value="" style="line;strokeWidth=1;fillColor=none;align=left;verticalAlign=middle;spacingTop=-1;spacingLeft=3;spacingRight=3;rotatable=0;labelPosition=right;points=[];portConstraint=eastwest;strokeColor=inherit;" vertex="1" parent="5xrcf0Wvj9pMxKyQcoh8-28">
          <mxGeometry y="52" width="200" height="8" as="geometry" />
        </mxCell>
        <mxCell id="5xrcf0Wvj9pMxKyQcoh8-31" value="+ checkAlert(patient, startTime, endTime): List&amp;lt;Alert&amp;gt;" style="text;strokeColor=none;fillColor=none;align=left;verticalAlign=top;spacingLeft=4;spacingRight=4;overflow=hidden;rotatable=0;points=[[0,0.5],[1,0.5]];portConstraint=eastwest;whiteSpace=wrap;html=1;" vertex="1" parent="5xrcf0Wvj9pMxKyQcoh8-28">
          <mxGeometry y="60" width="200" height="50" as="geometry" />
        </mxCell>
        <mxCell id="5xrcf0Wvj9pMxKyQcoh8-34" value="&amp;lt;&amp;lt;interface&amp;gt;&amp;gt;AlertManager" style="swimlane;fontStyle=1;align=center;verticalAlign=top;childLayout=stackLayout;horizontal=1;startSize=26;horizontalStack=0;resizeParent=1;resizeParentMax=0;resizeLast=0;collapsible=1;marginBottom=0;whiteSpace=wrap;html=1;" vertex="1" parent="1">
          <mxGeometry x="30" y="960" width="160" height="86" as="geometry" />
        </mxCell>
        <mxCell id="5xrcf0Wvj9pMxKyQcoh8-36" value="" style="line;strokeWidth=1;fillColor=none;align=left;verticalAlign=middle;spacingTop=-1;spacingLeft=3;spacingRight=3;rotatable=0;labelPosition=right;points=[];portConstraint=eastwest;strokeColor=inherit;" vertex="1" parent="5xrcf0Wvj9pMxKyQcoh8-34">
          <mxGeometry y="26" width="160" height="8" as="geometry" />
        </mxCell>
        <mxCell id="5xrcf0Wvj9pMxKyQcoh8-37" value="- handlers: List&amp;lt;AlertHandler&amp;gt;&lt;div&gt;+ dispatch(alert: Alert): void&lt;/div&gt;" style="text;strokeColor=none;fillColor=none;align=left;verticalAlign=top;spacingLeft=4;spacingRight=4;overflow=hidden;rotatable=0;points=[[0,0.5],[1,0.5]];portConstraint=eastwest;whiteSpace=wrap;html=1;" vertex="1" parent="5xrcf0Wvj9pMxKyQcoh8-34">
          <mxGeometry y="34" width="160" height="52" as="geometry" />
        </mxCell>
        <mxCell id="5xrcf0Wvj9pMxKyQcoh8-42" value="1" style="endArrow=open;html=1;endSize=12;startArrow=diamondThin;startSize=14;startFill=0;edgeStyle=orthogonalEdgeStyle;align=left;verticalAlign=bottom;rounded=0;exitX=0;exitY=0.5;exitDx=0;exitDy=0;entryX=0.25;entryY=0;entryDx=0;entryDy=0;" edge="1" parent="1" source="5xrcf0Wvj9pMxKyQcoh8-3" target="5xrcf0Wvj9pMxKyQcoh8-20">
          <mxGeometry x="-1" y="3" relative="1" as="geometry">
            <mxPoint x="-110" y="680" as="sourcePoint" />
            <mxPoint x="50" y="680" as="targetPoint" />
          </mxGeometry>
        </mxCell>
        <mxCell id="5xrcf0Wvj9pMxKyQcoh8-43" value="1" style="endArrow=open;html=1;endSize=12;startArrow=diamondThin;startSize=14;startFill=0;edgeStyle=orthogonalEdgeStyle;align=left;verticalAlign=bottom;rounded=0;exitX=1.031;exitY=0.25;exitDx=0;exitDy=0;exitPerimeter=0;entryX=0.5;entryY=0;entryDx=0;entryDy=0;" edge="1" parent="1" source="5xrcf0Wvj9pMxKyQcoh8-37" target="5xrcf0Wvj9pMxKyQcoh8-45">
          <mxGeometry x="-1" y="3" relative="1" as="geometry">
            <mxPoint x="-110" y="680" as="sourcePoint" />
            <mxPoint x="310" y="1018.9999999999998" as="targetPoint" />
            <Array as="points">
              <mxPoint x="195" y="1090" />
              <mxPoint x="120" y="1090" />
            </Array>
          </mxGeometry>
        </mxCell>
        <mxCell id="5xrcf0Wvj9pMxKyQcoh8-45" value="MedicalStaffHandler" style="swimlane;fontStyle=1;align=center;verticalAlign=top;childLayout=stackLayout;horizontal=1;startSize=26;horizontalStack=0;resizeParent=1;resizeParentMax=0;resizeLast=0;collapsible=1;marginBottom=0;whiteSpace=wrap;html=1;" vertex="1" parent="1">
          <mxGeometry x="40" y="1120" width="160" height="60" as="geometry" />
        </mxCell>
        <mxCell id="5xrcf0Wvj9pMxKyQcoh8-47" value="" style="line;strokeWidth=1;fillColor=none;align=left;verticalAlign=middle;spacingTop=-1;spacingLeft=3;spacingRight=3;rotatable=0;labelPosition=right;points=[];portConstraint=eastwest;strokeColor=inherit;" vertex="1" parent="5xrcf0Wvj9pMxKyQcoh8-45">
          <mxGeometry y="26" width="160" height="8" as="geometry" />
        </mxCell>
        <mxCell id="5xrcf0Wvj9pMxKyQcoh8-48" value="+ notify(alert: Alert): void" style="text;strokeColor=none;fillColor=none;align=left;verticalAlign=top;spacingLeft=4;spacingRight=4;overflow=hidden;rotatable=0;points=[[0,0.5],[1,0.5]];portConstraint=eastwest;whiteSpace=wrap;html=1;" vertex="1" parent="5xrcf0Wvj9pMxKyQcoh8-45">
          <mxGeometry y="34" width="160" height="26" as="geometry" />
        </mxCell>
        <mxCell id="5xrcf0Wvj9pMxKyQcoh8-49" value="1" style="endArrow=open;html=1;endSize=12;startArrow=diamondThin;startSize=14;startFill=1;edgeStyle=orthogonalEdgeStyle;align=left;verticalAlign=bottom;rounded=0;entryX=0.415;entryY=1.092;entryDx=0;entryDy=0;entryPerimeter=0;" edge="1" parent="1" target="5xrcf0Wvj9pMxKyQcoh8-23">
          <mxGeometry x="-1" y="3" relative="1" as="geometry">
            <mxPoint x="100" y="950" as="sourcePoint" />
            <mxPoint x="50" y="680" as="targetPoint" />
            <Array as="points">
              <mxPoint x="100" y="960" />
              <mxPoint x="110" y="960" />
              <mxPoint x="110" y="885" />
            </Array>
          </mxGeometry>
        </mxCell>
        <mxCell id="5xrcf0Wvj9pMxKyQcoh8-50" value="0..* uses" style="text;html=1;align=center;verticalAlign=middle;resizable=0;points=[];autosize=1;strokeColor=none;fillColor=none;" vertex="1" parent="1">
          <mxGeometry x="250" y="390" width="70" height="30" as="geometry" />
        </mxCell>
        <mxCell id="5xrcf0Wvj9pMxKyQcoh8-52" value="1..1 composed by" style="text;html=1;align=center;verticalAlign=middle;resizable=0;points=[];autosize=1;strokeColor=none;fillColor=none;" vertex="1" parent="1">
          <mxGeometry x="120" y="880" width="120" height="30" as="geometry" />
        </mxCell>
        <mxCell id="5xrcf0Wvj9pMxKyQcoh8-53" value="Text" style="text;html=1;align=center;verticalAlign=middle;whiteSpace=wrap;rounded=0;" vertex="1" parent="1">
          <mxGeometry x="90" y="420" width="60" height="30" as="geometry" />
        </mxCell>
        <mxCell id="5xrcf0Wvj9pMxKyQcoh8-54" value="&lt;span id=&quot;docs-internal-guid-0082f54f-7fff-5411-d227-21783804944a&quot;&gt;&lt;span style=&quot;font-size: 12pt; font-family: Arial, sans-serif; color: rgb(102, 102, 102); background-color: transparent; font-variant-numeric: normal; font-variant-east-asian: normal; font-variant-alternates: normal; font-variant-position: normal; font-variant-emoji: normal; vertical-align: baseline; white-space: pre-wrap;&quot;&gt;Alert Generation System&lt;/span&gt;&lt;/span&gt;" style="text;html=1;align=center;verticalAlign=middle;resizable=0;points=[];autosize=1;strokeColor=none;fillColor=none;" vertex="1" parent="1">
          <mxGeometry x="360" y="340" width="200" height="30" as="geometry" />
        </mxCell>
        <mxCell id="5xrcf0Wvj9pMxKyQcoh8-56" value="1" style="endArrow=open;html=1;endSize=12;startArrow=diamondThin;startSize=14;startFill=0;edgeStyle=orthogonalEdgeStyle;align=left;verticalAlign=bottom;rounded=0;exitX=0.5;exitY=1;exitDx=0;exitDy=0;entryX=0.5;entryY=0;entryDx=0;entryDy=0;" edge="1" parent="1" source="5xrcf0Wvj9pMxKyQcoh8-2" target="5xrcf0Wvj9pMxKyQcoh8-6">
          <mxGeometry x="-1" y="3" relative="1" as="geometry">
            <mxPoint x="80" y="420" as="sourcePoint" />
            <mxPoint x="240" y="420" as="targetPoint" />
          </mxGeometry>
        </mxCell>
        <mxCell id="5xrcf0Wvj9pMxKyQcoh8-57" value="&lt;p data-pm-slice=&quot;1 1 []&quot;&gt;&lt;span&gt;The &lt;/span&gt;&lt;span&gt;&lt;strong&gt;Alert Generation System&lt;/strong&gt;&lt;/span&gt;&lt;span&gt;&amp;nbsp;evaluates real-time patient data which is generated and triggers alerts when readings indicate critical conditions. The system is the &lt;/span&gt;&lt;code&gt;&lt;span&gt;AlertGenerator&lt;/span&gt;&lt;/code&gt;&lt;span&gt;, which evaluates data against a list of active &lt;/span&gt;&lt;code&gt;&lt;span&gt;AlertStrategy&lt;/span&gt;&lt;/code&gt;&lt;span&gt; implementations, such as &lt;/span&gt;&lt;code&gt;&lt;span&gt;BloodPressureStrategy&lt;/span&gt;&lt;/code&gt;&lt;span&gt;, &lt;/span&gt;&lt;code&gt;&lt;span&gt;OxygenSaturationStrategy&lt;/span&gt;&lt;/code&gt;&lt;span&gt;, and &lt;/span&gt;&lt;code&gt;&lt;span&gt;ManualAlertStrategy&lt;/span&gt;&lt;/code&gt;&lt;span&gt;. Using a strategy design pattern we encapsulate threshold logic for different vital signs, allowing new alert types to be added without chaning core logic(open/closed)&lt;/span&gt;&lt;/p&gt;&lt;p&gt;&lt;span&gt;Alerts(objects) are created when conditions are met in the alert straregy. Each &lt;/span&gt;&lt;code&gt;&lt;span&gt;Alert&lt;/span&gt;&lt;/code&gt;&lt;span&gt; stores the &lt;/span&gt;&lt;code&gt;&lt;span&gt;patientId&lt;/span&gt;&lt;/code&gt;&lt;span&gt;, a human-readable &lt;/span&gt;&lt;code&gt;&lt;span&gt;message&lt;/span&gt;&lt;/code&gt;&lt;span&gt;, and a &lt;/span&gt;&lt;code&gt;&lt;span&gt;timestamp&lt;/span&gt;&lt;/code&gt;&lt;span&gt;. These alerts are then send to the medical staff handler which will deal with the specific alert and send the corresponding countermeasure to the hospital staff.&amp;nbsp;&lt;/span&gt;&lt;/p&gt;&lt;p&gt;&lt;span&gt;This design emphasizes SOLID Principles: different alert strategies can be added independently, and the alert routing system can be configured to support various notification methods(TCP,Coclose). Composition is used to model alert ownership by the generator, while aggregation is used to link generators to strategies and managers to handlers, preserving loose coupling.&lt;/span&gt;&lt;/p&gt;&lt;p&gt;&lt;br&gt;&lt;/p&gt;" style="text;whiteSpace=wrap;html=1;" vertex="1" parent="1">
          <mxGeometry x="250" y="730" width="329" height="380" as="geometry" />
        </mxCell>
      </root>
    </mxGraphModel>
  </diagram>
</mxfile>
